<?xml version="1.0" standalone="no"?>
<!DOCTYPE svg PUBLIC "-//W3C//DTD SVG 20010904//EN"
 "http://www.w3.org/TR/2001/REC-SVG-20010904/DTD/svg10.dtd">
<svg version="1.0" xmlns="http://www.w3.org/2000/svg"
 width="1055.000000pt" height="1055.000000pt" viewBox="0 0 1055.000000 1055.000000"
 preserveAspectRatio="xMidYMid meet">
<metadata>
Created by potrace 1.11, written by Peter Selinger 2001-2013
</metadata>
<g transform="translate(0.000000,1055.000000) scale(0.100000,-0.100000)"
fill="#000000" stroke="none">
<path d="M2405 10536 c-40 -17 -82 -67 -95 -114 -13 -50 -13 -441 1 -497 14
-55 66 -110 117 -124 20 -6 124 -11 230 -11 l192 0 -16 -25 c-20 -30 -21 -130
-2 -153 7 -8 28 -21 46 -29 36 -15 63 -62 54 -95 -2 -10 -21 -27 -41 -38 -64
-32 -64 -31 -57 -222 4 -95 11 -301 16 -458 6 -157 22 -564 35 -905 32 -820
43 -1151 56 -1810 12 -634 25 -2581 21 -3267 l-2 -467 -268 -3 -269 -3 -40
-27 c-72 -47 -78 -71 -81 -329 -4 -247 2 -288 45 -340 54 -64 -172 -59 2923
-59 3095 0 2869 -5 2923 59 43 52 49 93 45 340 -3 258 -9 282 -81 329 l-40 27
-257 3 -257 3 -6 331 c-10 462 -9 1174 3 2193 16 1446 27 1877 75 3095 42
1039 54 1453 43 1473 -5 10 -25 25 -44 33 -71 30 -68 108 6 138 22 8 44 24 49
35 16 29 13 107 -4 141 l-15 29 203 3 c198 3 205 4 240 28 20 13 46 43 59 65
22 38 23 51 26 266 4 247 -2 288 -45 340 -54 64 173 59 -2925 59 -2333 -1
-2838 -3 -2863 -14z m4815 -750 c0 -2 -7 -17 -15 -32 -15 -30 -20 -99 -9 -129
4 -9 28 -27 54 -40 37 -19 50 -32 55 -54 8 -40 -8 -68 -51 -86 -19 -8 -37 -22
-41 -32 -8 -20 10 -640 37 -1303 49 -1190 64 -1763 80 -3070 11 -923 13 -2476
3 -2622 l-6 -98 -2055 0 -2055 0 6 1583 c8 2024 17 2536 77 4042 41 1022 53
1430 46 1460 -5 18 -19 30 -46 41 -71 29 -67 104 7 138 64 29 82 95 44 169
l-19 37 1944 0 c1069 0 1944 -2 1944 -4z"/>
<path d="M3783 9658 c-17 -51 -54 -159 -82 -241 -86 -250 -111 -424 -112 -767
-2 -616 195 -1149 621 -1680 176 -218 292 -331 662 -641 130 -109 244 -209
252 -221 20 -28 20 -77 1 -105 -8 -12 -122 -111 -253 -221 -261 -220 -402
-346 -475 -425 -408 -441 -652 -882 -756 -1366 -38 -174 -53 -326 -52 -531 1
-343 26 -514 112 -766 28 -82 65 -191 82 -241 29 -86 46 -109 62 -83 4 6 -32
124 -79 263 -101 298 -122 400 -134 680 -17 354 19 623 122 931 182 544 511
976 1144 1505 134 112 252 217 263 235 24 40 24 102 0 142 -11 18 -72 76 -137
130 -450 377 -624 543 -788 749 -232 292 -381 557 -482 861 -103 308 -139 577
-122 931 12 280 33 382 134 680 47 139 83 257 79 263 -16 26 -33 3 -62 -82z"/>
<path d="M6714 9737 c-2 -7 32 -117 76 -245 116 -339 140 -478 141 -839 2
-592 -182 -1099 -587 -1623 -130 -168 -392 -425 -672 -659 -133 -111 -253
-217 -267 -235 -31 -41 -34 -107 -6 -152 11 -18 129 -123 263 -235 635 -531
966 -967 1145 -1509 89 -270 125 -494 124 -783 -1 -360 -25 -501 -142 -842
-44 -126 -77 -235 -75 -242 13 -33 34 -7 63 79 17 51 52 154 78 228 91 264
115 423 116 775 3 619 -195 1154 -621 1685 -176 218 -292 331 -662 641 -130
109 -244 209 -252 221 -22 31 -20 80 4 111 11 14 127 114 258 223 481 401 781
746 986 1134 193 367 288 754 287 1177 -1 348 -26 517 -113 772 -27 80 -64
188 -81 239 -29 86 -50 112 -63 79z"/>
<path d="M6765 8501 c-238 -70 -559 -243 -1000 -539 -126 -85 -247 -163 -268
-174 -100 -51 -298 -78 -431 -59 -85 12 -434 104 -651 172 -153 48 -409 147
-550 213 -54 26 -105 44 -112 42 -22 -9 -15 -79 17 -169 81 -229 323 -668 505
-916 112 -153 534 -550 790 -744 136 -103 192 -131 235 -122 101 22 535 358
780 604 144 144 252 290 414 560 144 242 217 389 269 549 69 210 99 357 101
487 1 128 3 126 -99 96z"/>
<path d="M5226 5805 c-39 -36 -37 -94 5 -129 35 -30 58 -32 98 -11 40 20 57
66 41 105 -26 63 -96 80 -144 35z"/>
<path d="M5069 5561 c-20 -20 -29 -39 -29 -61 0 -43 47 -90 90 -90 22 0 41 9
61 29 20 20 29 39 29 61 0 22 -9 41 -29 61 -20 20 -39 29 -61 29 -22 0 -41 -9
-61 -29z"/>
<path d="M5274 5350 c-56 -23 -72 -103 -29 -145 55 -55 149 -17 149 61 0 59
-67 106 -120 84z"/>
<path d="M5084 5088 c-51 -24 -57 -96 -14 -140 27 -26 36 -30 68 -25 22 4 46
17 60 32 63 73 -25 176 -114 133z"/>
<path d="M5295 4905 c-62 -62 -3 -172 80 -151 65 16 88 104 40 151 -33 34 -87
34 -120 0z"/>
<path d="M5155 4678 c-32 -18 -44 -40 -45 -79 0 -91 116 -121 163 -41 45 76
-41 164 -118 120z"/>
<path d="M5350 4453 c-62 -23 -81 -103 -35 -148 26 -27 72 -33 106 -15 27 15
51 65 43 94 -11 46 -74 84 -114 69z"/>
<path d="M5136 4174 c-38 -39 -36 -93 5 -128 17 -14 39 -26 50 -26 34 0 76 28
88 58 37 88 -75 163 -143 96z"/>
<path d="M5202 3888 c-39 -35 -131 -128 -204 -208 -72 -80 -157 -169 -188
-199 -131 -128 -475 -362 -604 -412 -330 -126 -419 -168 -433 -205 -8 -22 38
-180 101 -349 l53 -140 1356 -3 1356 -2 59 182 c70 214 90 294 76 308 -6 6
-98 39 -205 74 -243 79 -342 128 -477 235 -235 186 -336 283 -576 556 -124
141 -209 225 -227 225 -8 0 -48 -28 -87 -62z"/>
<path d="M9130 1103 c-57 -14 -150 -16 -185 -3 -24 9 -26 8 -20 -12 4 -13 18
-34 33 -47 22 -20 32 -22 72 -17 l47 6 -25 -123 -24 -124 -49 18 c-144 55
-279 -10 -356 -171 -31 -65 -43 -194 -23 -254 45 -137 201 -80 333 122 l42 63
5 -106 c5 -103 6 -108 34 -132 38 -32 87 -27 155 17 85 54 235 224 290 327 9
19 8 24 -7 32 -16 9 -24 3 -51 -39 -39 -61 -172 -203 -225 -242 -21 -15 -49
-28 -62 -28 -60 0 -58 82 12 432 30 154 54 283 52 286 -2 4 -23 2 -48 -5z
m-170 -368 c27 -14 50 -28 50 -31 0 -15 -132 -196 -184 -251 -65 -70 -102 -82
-130 -41 -34 48 -9 214 44 288 54 75 120 86 220 35z"/>
<path d="M1842 1070 c-18 -4 -41 -15 -51 -24 -28 -26 -78 -141 -105 -246 l-24
-95 -121 -3 c-67 -1 -121 1 -121 6 0 9 44 234 55 279 5 22 4 22 -107 20 -62
-1 -123 2 -135 6 -34 12 -30 -18 7 -55 29 -28 34 -30 81 -24 46 6 50 5 45 -11
-2 -10 -12 -56 -21 -103 -24 -125 -19 -117 -79 -124 -59 -8 -75 -17 -101 -58
-20 -33 -20 -33 35 -13 23 8 58 15 76 15 31 0 34 -3 29 -22 -20 -87 -65 -326
-65 -350 0 -31 7 -33 63 -17 31 8 37 14 37 36 0 15 14 100 32 190 l32 163 124
0 123 0 -8 -37 c-14 -74 -8 -185 14 -235 25 -55 51 -72 116 -72 51 0 94 24
108 60 7 20 6 21 -32 8 -96 -33 -137 51 -113 230 5 35 11 46 25 46 31 0 66 21
78 47 17 37 13 43 -16 27 -38 -19 -63 -18 -63 4 0 62 78 266 126 329 28 37 23
39 -44 23z"/>
<path d="M4755 1009 c-16 -5 -129 -12 -250 -16 -121 -3 -230 -10 -242 -14 -21
-8 -63 -63 -63 -81 0 -4 18 2 41 13 51 27 135 39 127 18 -3 -8 -13 -58 -24
-113 -10 -54 -23 -100 -29 -101 -5 -2 -21 -6 -35 -9 -14 -3 -33 -19 -43 -35
l-18 -31 46 6 c25 4 45 4 45 1 0 -2 -9 -49 -20 -102 -35 -170 -24 -225 47
-240 16 -4 37 -8 48 -10 27 -6 191 14 234 29 31 10 81 60 70 70 -2 2 -29 -2
-59 -10 -67 -17 -196 -18 -230 -1 -33 16 -36 56 -12 172 l18 90 104 7 c101 7
106 9 133 39 16 17 27 32 25 34 -2 2 -21 0 -43 -5 -22 -5 -78 -10 -124 -10
-81 0 -83 1 -78 23 2 12 13 64 23 115 l18 92 120 0 c131 0 175 12 204 58 16
24 12 25 -33 11z"/>
<path d="M5428 1009 c-30 -11 -59 -53 -78 -111 l-12 -38 -57 0 c-47 0 -61 -4
-78 -22 -37 -41 -35 -43 43 -40 41 2 74 0 74 -5 -1 -39 -36 -114 -73 -151 -50
-52 -153 -125 -169 -120 -6 2 -30 39 -53 81 l-42 78 38 38 c44 43 49 71 19
101 -25 25 -45 25 -81 -1 -80 -56 -78 -147 4 -283 l36 -59 -67 -39 c-110 -65
-138 -99 -120 -150 11 -31 62 -58 110 -58 48 0 131 42 159 81 20 28 24 46 24
100 l0 67 56 36 c31 20 64 45 74 56 10 11 21 20 24 20 3 0 6 -46 6 -103 0 -98
2 -106 28 -140 48 -63 125 -61 224 6 50 35 84 86 76 115 -4 15 -12 11 -46 -24
-55 -54 -115 -74 -152 -50 -59 39 -58 120 1 343 l17 61 164 4 c149 3 166 5
179 22 28 39 20 41 -151 38 -121 -3 -165 -1 -165 8 0 6 15 43 34 81 l34 69
-26 -1 c-15 0 -39 -5 -54 -10z m-398 -630 c0 -72 -72 -120 -131 -89 -27 15
-24 38 13 72 35 33 99 68 111 61 4 -2 7 -22 7 -44z"/>
<path d="M6188 995 c-139 -34 -258 -121 -258 -188 0 -19 3 -37 7 -40 3 -4 35
20 69 53 85 82 172 122 273 128 87 4 123 -6 147 -43 24 -36 6 -91 -47 -144
-35 -35 -47 -41 -84 -41 -45 0 -67 -16 -80 -59 -7 -24 -7 -24 49 -18 114 11
196 -43 196 -129 0 -75 -37 -126 -120 -163 -52 -24 -142 -27 -180 -8 -37 19
-36 56 10 281 22 110 40 210 40 222 0 28 -15 33 -65 22 -39 -8 -41 -10 -38
-41 2 -17 -16 -133 -41 -255 -33 -166 -42 -230 -35 -248 37 -99 349 -51 471
72 103 102 82 227 -47 289 -30 14 -55 27 -55 29 0 3 16 14 36 27 49 30 94 102
94 152 0 48 -38 90 -96 106 -53 15 -176 12 -246 -4z"/>
<path d="M2287 843 c-4 -3 -7 -19 -7 -34 0 -25 -4 -27 -54 -33 -217 -28 -308
-320 -137 -441 38 -27 50 -30 119 -30 67 0 84 4 131 30 92 51 157 152 168 261
6 52 7 55 29 50 57 -15 112 -17 147 -8 46 13 46 16 12 -148 -28 -134 -29 -168
-4 -183 30 -19 67 0 79 41 35 130 207 369 268 373 31 2 47 -2 58 -16 9 -12 14
-12 32 1 12 8 29 28 37 43 32 62 -42 93 -123 52 -63 -33 -141 -123 -220 -255
-23 -39 -42 -64 -42 -58 0 7 9 54 19 105 34 160 33 177 -16 177 -48 0 -61 -9
-59 -40 2 -48 -104 -61 -194 -24 -19 8 -54 35 -78 60 -56 59 -143 100 -165 77z
m82 -134 c35 -18 41 -26 47 -64 12 -86 -27 -198 -91 -253 -141 -125 -294 48
-201 227 16 29 69 82 101 99 32 18 101 14 144 -9z"/>
<path d="M6957 843 c-4 -3 -7 -19 -7 -34 0 -25 -4 -27 -54 -33 -217 -28 -308
-320 -137 -441 38 -27 50 -30 119 -30 67 0 84 4 131 30 92 51 157 152 168 261
l6 54 36 -7 c20 -5 57 -8 84 -8 26 0 47 -2 47 -5 0 -3 -7 -23 -15 -45 -18 -52
-19 -176 -1 -219 53 -126 203 -64 336 140 l50 77 0 -74 c1 -127 46 -190 124
-173 68 14 174 95 249 189 31 38 39 44 34 25 -20 -87 -38 -192 -35 -211 4 -29
29 -43 61 -35 20 5 29 16 37 44 35 130 207 369 268 373 31 2 47 -2 58 -16 9
-12 14 -12 32 1 12 8 29 28 37 43 32 62 -42 93 -123 52 -63 -33 -141 -123
-220 -255 -23 -39 -42 -64 -42 -58 0 7 9 54 19 105 34 157 32 177 -13 177 -56
0 -65 -7 -59 -48 4 -32 -1 -45 -45 -102 -73 -96 -174 -188 -217 -196 -45 -8
-62 6 -70 60 -9 57 11 215 35 282 l18 54 -33 0 c-18 0 -43 -8 -56 -18 -22 -18
-24 -18 -71 0 -61 23 -141 23 -194 -1 -22 -10 -63 -39 -91 -63 -58 -52 -99
-63 -168 -48 -64 14 -83 25 -133 77 -57 58 -143 98 -165 76z m734 -108 c27
-14 49 -28 49 -31 0 -16 -133 -199 -183 -251 -67 -70 -103 -81 -131 -41 -35
50 -13 191 44 281 51 81 118 94 221 42z m-652 -26 c35 -18 41 -26 47 -64 12
-86 -27 -198 -91 -253 -141 -125 -294 48 -201 227 16 29 69 82 101 99 32 18
101 14 144 -9z"/>
<path d="M3342 794 c-104 -51 -173 -167 -180 -300 -5 -94 8 -145 45 -174 72
-57 193 17 303 186 l50 77 0 -74 c1 -129 44 -188 127 -173 48 9 142 74 206
143 55 60 147 190 147 209 0 9 -30 26 -34 20 -29 -49 -123 -162 -176 -211
-104 -98 -162 -103 -175 -13 -9 57 11 215 35 282 l18 54 -33 0 c-18 0 -43 -8
-56 -18 -22 -18 -24 -18 -71 0 -70 26 -143 24 -206 -8z m189 -59 c27 -14 49
-28 49 -31 0 -16 -133 -199 -183 -251 -67 -70 -103 -81 -131 -41 -35 50 -13
191 44 281 51 81 118 94 221 42z"/>
</g>
</svg>
